<svg width="143" height="24" viewBox="0 0 143 24" fill="none" xmlns="http://www.w3.org/2000/svg">
<g clip-path="url(#clip0_1960_1478)">
<path d="M26.2649 24H5.96026C2.67219 24 0 21.222 0 17.8038V15.5628C0 11.938 2.02649 8.57143 5.1755 6.98107L16.5397 1.2599C18.1689 0.433735 19.9868 0 21.8046 0H26.2649V6.19621H21.8046C20.8907 6.19621 19.9669 6.41308 19.1424 6.83649L7.77815 12.5577C6.6755 13.1153 5.9702 14.2926 5.9702 15.5628V17.8038H26.2748V24H26.2649Z" fill="#4BB3A4"/>
<path d="M26.2656 6.19629V17.8039C26.2656 17.8039 36.0007 17.5147 36.0007 6.19629H26.2656Z" fill="#4BB3A4"/>
</g>
<path d="M57.5741 16.3958C56.9792 16.6811 56.3471 16.8237 55.6779 16.8237C55.0458 16.8237 54.4509 16.6989 53.8932 16.4314C53.3355 16.1818 52.8521 15.843 52.4245 15.3971C52.0156 14.9692 51.6809 14.452 51.4392 13.8636C51.1976 13.2929 51.086 12.6688 51.086 12.009C51.086 11.3492 51.1976 10.7073 51.4392 10.1366C51.6809 9.54815 52.0156 9.04885 52.4245 8.60304C52.8521 8.15723 53.3355 7.81842 53.8932 7.56877C54.4509 7.31912 55.0458 7.19429 55.6779 7.19429C56.3471 7.19429 56.9792 7.33695 57.5555 7.60443C58.1504 7.88975 58.6524 8.26423 59.0614 8.7457L61.8128 7.31912C61.1063 6.39184 60.2326 5.64288 59.1729 5.07225C58.1132 4.51945 56.942 4.23413 55.6779 4.23413C54.6182 4.23413 53.6329 4.43029 52.7034 4.84043C51.7739 5.25057 50.9559 5.80337 50.2495 6.51666C49.543 7.21212 49.0039 8.05024 48.5949 8.97752C48.2045 9.92263 48 10.9212 48 12.009C48 13.0968 48.2045 14.0776 48.5949 15.0227C49.0039 15.9499 49.543 16.7881 50.2495 17.5014C50.9559 18.2146 51.7739 18.7674 52.7034 19.1598C53.6329 19.5699 54.6182 19.7661 55.6779 19.7661C56.942 19.7661 58.1132 19.4986 59.1729 18.9279C60.2326 18.3573 61.1063 17.6262 61.8128 16.6811L59.0614 15.2545C58.6524 15.7181 58.1504 16.1104 57.5741 16.3958Z" fill="#251535"/>
<path d="M73.3211 4.51929V9.9938H67.3907V4.51929H64.3047V19.4984H67.3907V12.954H73.3211V19.4984H76.4071V4.51929H73.3211Z" fill="#251535"/>
<path d="M88.2472 4.51929H84.7521L79.082 19.4984H82.354L82.986 17.7865H83.0046L83.2835 17.0197L85.1983 11.9732L86.4811 8.56722L87.8568 12.1693L88.5818 14.0596L89.7158 17.0197L90.0876 18.0362H90.1062L90.6453 19.4984H93.9173L88.2472 4.51929Z" fill="#251535"/>
<path d="M103.881 11.3314C102.989 10.9391 102.004 10.6716 100.944 10.5289C100.442 10.4576 99.9773 10.3684 99.5497 10.2793C99.1221 10.1901 98.7875 10.0296 98.5272 9.81563C98.2669 9.60164 98.1368 9.29849 98.1368 8.87052C98.1368 8.54954 98.2855 8.26422 98.5458 8.01457C98.8247 7.76491 99.1779 7.56876 99.6055 7.4261C100.033 7.28344 100.479 7.21211 100.944 7.22995C101.446 7.22995 101.911 7.28344 102.338 7.40827C102.766 7.53309 103.119 7.71142 103.398 7.90757C103.677 8.12156 103.863 8.35338 103.956 8.5852L106.837 7.58659C106.577 6.89113 106.149 6.28483 105.554 5.78553C104.96 5.28623 104.253 4.91175 103.454 4.64426C102.654 4.37678 101.818 4.25195 100.944 4.25195C99.9029 4.25195 98.9362 4.43028 98.0439 4.82259C97.1515 5.2149 96.4265 5.74987 95.8874 6.44532C95.3296 7.14078 95.0694 7.94324 95.0694 8.87052C95.0694 9.7978 95.311 10.6181 95.8316 11.2422C96.3521 11.8663 97.04 12.3656 97.9323 12.7223C98.8247 13.0611 99.8285 13.3286 100.944 13.4712C101.409 13.5604 101.855 13.6496 102.282 13.7922C102.71 13.9171 103.063 14.0954 103.342 14.3094C103.621 14.5412 103.751 14.8087 103.751 15.1475C103.751 15.4863 103.621 15.7716 103.361 16.0213C103.1 16.2709 102.747 16.4671 102.32 16.6097C101.892 16.7524 101.427 16.8237 100.944 16.8237C100.461 16.8237 99.9773 16.7524 99.5497 16.6276C99.1407 16.4849 98.7875 16.3244 98.49 16.1104C98.2112 15.8964 98.0253 15.6646 97.9323 15.4328L95.0508 16.4492C95.311 17.1447 95.7386 17.7332 96.3335 18.2325C96.947 18.7318 97.6349 19.1063 98.4343 19.3737C99.2336 19.6412 100.07 19.766 100.944 19.766C102.004 19.766 102.97 19.5699 103.863 19.1954C104.755 18.8031 105.48 18.2681 106.019 17.5727C106.558 16.895 106.837 16.0748 106.837 15.1475C106.837 14.2202 106.558 13.4712 106.019 12.8471C105.48 12.2052 104.774 11.7059 103.881 11.3314Z" fill="#251535"/>
<path d="M121.619 4.51929H117.603L112.844 9.95814V4.51929H109.758V19.4984H112.844V14.541L113.42 13.8812L117.584 19.4984H121.6L115.428 11.5809L121.619 4.51929Z" fill="#251535"/>
<path d="M124.016 4.51929V19.4984H127.083V4.51929H124.016Z" fill="#251535"/>
<path d="M139.147 11.3314C138.255 10.9391 137.269 10.6716 136.228 10.5289C135.708 10.4576 135.243 10.3684 134.815 10.2793C134.388 10.1901 134.053 10.0296 133.793 9.81563C133.533 9.60164 133.402 9.29849 133.402 8.87052C133.402 8.54954 133.551 8.26422 133.811 8.01457C134.09 7.76491 134.444 7.56876 134.871 7.4261C135.299 7.28344 135.745 7.21211 136.228 7.22995C136.712 7.22995 137.176 7.28344 137.604 7.40827C138.031 7.53309 138.385 7.71142 138.664 7.90757C138.942 8.12156 139.128 8.35338 139.221 8.5852L142.103 7.58659C141.843 6.89113 141.415 6.28483 140.82 5.78553C140.225 5.28623 139.519 4.91175 138.719 4.64426C137.92 4.37678 137.083 4.25195 136.228 4.25195C135.187 4.25195 134.202 4.43028 133.309 4.82259C132.417 5.2149 131.692 5.74987 131.153 6.44532C130.595 7.14078 130.335 7.94324 130.335 8.87052C130.335 9.7978 130.595 10.6181 131.097 11.2422C131.618 11.8663 132.306 12.3656 133.198 12.7223C134.09 13.0611 135.094 13.3286 136.228 13.4712C136.674 13.5604 137.121 13.6496 137.548 13.7922C137.976 13.9171 138.329 14.0954 138.608 14.3094C138.887 14.5412 139.017 14.8087 139.017 15.1475C139.017 15.4863 138.887 15.7716 138.626 16.0213C138.366 16.2709 138.013 16.4671 137.585 16.6097C137.158 16.7524 136.712 16.8237 136.228 16.8237C135.708 16.8237 135.243 16.7524 134.834 16.6276C134.406 16.4849 134.053 16.3244 133.774 16.1104C133.477 15.8964 133.291 15.6646 133.217 15.4328L130.316 16.4492C130.577 17.1447 131.004 17.7332 131.618 18.2325C132.213 18.7318 132.9 19.1063 133.7 19.3737C134.499 19.6412 135.336 19.766 136.228 19.766C137.269 19.766 138.236 19.5699 139.128 19.1954C140.021 18.8031 140.746 18.2681 141.285 17.5727C141.824 16.895 142.103 16.0748 142.103 15.1475C142.103 14.2202 141.824 13.4712 141.285 12.8471C140.746 12.2052 140.039 11.7059 139.147 11.3314Z" fill="#251535"/>
<path d="M82.9883 17.7866L83.2857 17.0198L83.0069 17.7866H82.9883Z" fill="#1D1D1B"/>
<path d="M90.1091 18.0362H90.0906L89.7188 17.0198L90.1091 18.0362Z" fill="#1D1D1B"/>
<defs>
<clipPath id="clip0_1960_1478">
<rect width="36" height="24" fill="white"/>
</clipPath>
</defs>
</svg>
